<svg version="1.1" id="Layer_1" xmlns:x="ns_extend;" xmlns:i="ns_ai;" xmlns:graph="ns_graphs;" xmlns="http://www.w3.org/2000/svg" xmlns:xlink="http://www.w3.org/1999/xlink" x="0px" y="0px" viewBox="0 0 76.8 77" style="enable-background:new 0 0 76.8 77;" xml:space="preserve">
 <style type="text/css">
  .st0{fill-rule:evenodd;clip-rule:evenodd;fill:#FFFFFF;}
 </style>
 <metadata>
  <sfw xmlns="ns_sfw;">
   <slices>
   </slices>
   <sliceSourceBounds bottomLeftOrigin="true" height="77" width="76.8" x="29.7" y="-238.7">
   </sliceSourceBounds>
  </sfw>
 </metadata>
 <g>
  <path class="st0" d="M70.9,77h-65C2.7,77,0,74.3,0,71.1V5.9C0,2.7,2.6,0,5.9,0h65c3.3,0,5.9,2.7,5.9,5.9v65.1
		C76.8,74.3,74.2,77,70.9,77z M44.8,20.7c1.3,0,2.4-1,2.4-2.4c0-0.3-0.1-0.7-0.2-1l0,0c-1.3-2.9-4-4.8-7.2-5.2c-5-0.6-9.5,3-10.1,8
		c-7.3,2.8-12.7,8.5-13.9,16.5c-0.2,0.4-0.3,2-0.3,2.5c0,1.5,1.2,2.8,2.8,2.7c2.4,0,2.9-2.4,2.9-2.4c0.7-6,4.4-11.2,9.8-13.8
		c0,0.1,0.1,0.1,0.1,0.2v0c2.7,4.3,8.3,5.6,12.5,2.9l0-0.1l0.1,0c1.2-0.5,1.7-2,1.1-3.1c-0.5-1.2-1.9-1.7-3.1-1.2l0,0
		c-0.1,0.1-0.1,0.1-0.2,0.1c-0.2,0.1-0.3,0.2-0.4,0.3c-0.7,0.4-1.5,0.7-2.3,0.7c-1.6,0-3.1-0.9-3.8-2.3c-1.1-2.1-0.3-4.7,1.8-5.8
		c2.1-1.1,4.7-0.3,5.8,1.8C42.9,20,43.8,20.6,44.8,20.7z M53.4,56.7c-0.7,1.1-0.3,2.6,0.8,3.3c0.3,0.2,0.6,0.3,1,0.3v0
		c3.1,0.3,6.1-1.1,8-3.6c3-4,2.2-9.8-1.8-12.8c1.2-7.8-1-15.3-7.2-20.4c-0.2-0.3-1.6-1.3-2-1.5h0c-1.3-0.7-3-0.3-3.7,1
		c-1.2,2.1,0.6,3.7,0.6,3.7c4.8,3.6,7.5,9.4,7,15.5h-0.2c-5,0.2-9,4.4-8.8,9.5l0.1,0c-0.1,0.9,0.3,1.9,1.2,2.3
		c1.1,0.6,2.5,0.2,3.2-0.9c0.2-0.3,0.3-0.6,0.3-1h0.1c0,0,0-0.1,0-0.1c0,0,0-0.1,0-0.1c0-0.2,0-0.3-0.1-0.5c0-0.1,0-0.2,0-0.4
		c0.1-2.4,2.1-4.2,4.5-4.1c2.4,0.1,4.2,2.2,4.1,4.6c-0.1,2.4-2.1,4.2-4.5,4.1C54.9,55.3,53.9,55.8,53.4,56.7z M17.7,46.3
		c-0.6-1.2-2.1-1.6-3.2-0.9c-0.3,0.2-0.5,0.4-0.7,0.7h0c-1.8,2.6-2.1,5.9-0.9,8.8c2,4.6,7.3,6.8,11.9,4.8c6.1,4.9,13.6,6.8,21.2,3.9
		c0.4,0,1.9-0.8,2.3-1c1.3-0.8,1.7-2.5,1-3.8c-1.2-2.1-3.5-1.3-3.5-1.3c-5.5,2.4-11.8,1.8-16.8-1.6c0,0,0.1-0.1,0.1-0.1
		c2.4-4.5,0.7-10-3.7-12.4l0,0c-0.7-0.6-1.8-0.6-2.6-0.2c-0.3,0.2-0.5,0.4-0.7,0.7c-0.8,1.1-0.5,2.6,0.5,3.3l0,0c0,0,0.1,0,0.1,0
		c0,0,0.1,0,0.1,0c0.2,0.1,0.3,0.2,0.5,0.2c0.7,0.4,1.3,0.9,1.7,1.6c1.2,2.1,0.5,4.7-1.6,5.9c-2,1.2-4.7,0.5-5.9-1.6
		c-0.8-1.4-0.8-3.1,0.1-4.5C18.1,48.3,18.2,47.2,17.7,46.3z">
  </path>
 </g>
</svg>